<svg xmlns="http://www.w3.org/2000/svg" viewBox="0 0 512 512" width="512" height="512">
  <defs>
    <linearGradient id="bg" x1="0" y1="0" x2="1" y2="1">
      <stop offset="0" stop-color="#1b1a3a"/>
      <stop offset="1" stop-color="#131425"/>
    </linearGradient>
    <linearGradient id="mark" x1="0.15" y1="0.05" x2="0.85" y2="0.95" gradientUnits="objectBoundingBox">
      <stop offset="0" stop-color="#c8a6ff"/>
      <stop offset="0.55" stop-color="#8c66ff"/>
      <stop offset="1" stop-color="#5c26ff"/>
    </linearGradient>
  </defs>
  <rect width="512" height="512" rx="112" fill="url(#bg)"/>
  <path fill="url(#mark)" d="M355 128l73 45 30 73-30 73-73 45-46-30 62-40 15-48-15-48-62-40 46-30z"/>
  <path fill="url(#mark)" d="M157 384l-73-45-30-73 30-73 73-45 46 30-62 40-15 48 15 48 62 40-46 30z" opacity="0.9"/>
  <path fill="url(#mark)" d="M256 214l52 34-52 34-52-34 52-34z"/>
</svg>
